<svg width="78" height="78" viewBox="0 0 78 78" fill="none" xmlns="http://www.w3.org/2000/svg">
<circle cx="39" cy="39" r="39" fill="#727272"/>
<path d="M51.0206 35.1914L51.0206 35.1995C51.0218 35.3464 50.9785 35.4891 50.898 35.6082L50.8803 35.6344L50.8642 35.6618L32.0221 67.7651L30.5223 67.1727L36.3753 45.5207L36.7223 44.2372L35.3928 44.2599L27.6826 44.3917C27.5615 44.3938 27.4412 44.3632 27.3341 44.302C27.2268 44.2407 27.136 44.1506 27.0722 44.0395C27.0084 43.9284 26.9744 43.8011 26.9749 43.6707C26.9753 43.5412 27.0096 43.4149 27.0733 43.3048C27.0737 43.3041 27.0741 43.3033 27.0746 43.3025L46.641 10.2178L48.1709 10.7605L42.8411 33.2321L42.5491 34.4629H43.8141H43.8189H50.3147C50.4056 34.4629 50.4959 34.481 50.5805 34.5165C50.6652 34.5521 50.7431 34.6046 50.8092 34.6716C50.8754 34.7387 50.9286 34.819 50.9651 34.9083C51.0016 34.9977 51.0206 35.0939 51.0206 35.1914ZM53.0515 20.2366L54.1347 15.677C58.9097 18.7936 62.6487 23.3167 64.8368 28.6569C67.2024 34.4304 67.622 40.8343 66.0301 46.8747C64.4382 52.915 60.9244 58.2518 56.0367 62.0589C51.4105 65.6622 45.7977 67.7051 39.9859 67.918L42.711 63.2481C47.2595 62.5192 51.5023 60.4627 54.9176 57.3272C58.4538 54.0808 60.938 49.8294 62.0469 45.1309C63.1557 40.4325 62.838 35.5043 61.1351 30.9915C59.513 26.6929 56.7055 22.9607 53.0515 20.2366ZM24.2794 63.6767C19.3986 60.6093 15.5549 56.0868 13.2876 50.7116C10.8506 44.9341 10.3735 38.4998 11.9316 32.4175C13.4896 26.3352 16.994 20.9509 21.893 17.1064C26.5253 13.4712 32.1575 11.4063 37.9927 11.1866L35.2334 15.8567C30.6352 16.6088 26.3552 18.7179 22.9315 21.9231C19.3893 25.2392 16.9323 29.5704 15.887 34.3366C14.8417 39.1027 15.2572 44.0787 17.0786 48.5997C18.8087 52.8944 21.7298 56.5855 25.4836 59.23L24.2794 63.6767Z" fill="white" stroke="#727272" stroke-width="2"/>
</svg>
