<svg width="78" height="78" viewBox="0 0 78 78" fill="none" xmlns="http://www.w3.org/2000/svg">
<circle cx="39" cy="39" r="39" fill="#727272"/>
<path d="M34.5656 10.2047C33.4964 10.7052 33.2917 11.2284 33.2917 13.5714V15.3912L32.7913 15.4594C31.3809 15.6641 28.8104 16.665 26.9906 17.6887L25.7395 18.4166L24.3974 17.0972C23.1918 15.9144 23.0098 15.7779 22.4866 15.6414C21.6677 15.4367 21.1218 15.6186 20.3484 16.3238C17.9144 18.5531 17.5732 19.008 17.5732 19.9179C17.5732 20.7596 17.8234 21.1463 19.1655 22.4884C19.8024 23.1253 20.3484 23.694 20.3484 23.7395C20.3484 23.785 20.1209 24.1945 19.8479 24.6267C18.756 26.3782 17.8234 28.744 17.3229 31.0187L17.2774 31.2917H15.3894C13.5923 31.2917 13.4786 31.3145 13.0236 31.5874C12.7279 31.7467 12.4322 32.0424 12.273 32.3608C12 32.8158 12 32.884 12 35.0451C12 37.5473 12.0227 37.6838 12.8644 38.3435L13.2966 38.6847L15.2756 38.7074L17.2547 38.7302L17.4367 39.5718C17.8689 41.4826 18.8243 43.8484 19.9389 45.6454L20.3711 46.3961L19.0972 47.67C18.3921 48.3751 17.7779 49.1031 17.7096 49.285C17.5504 49.6717 17.5504 50.4679 17.7096 50.8774C17.8461 51.2413 20.6213 54.062 21.0763 54.3122C21.2583 54.4032 21.645 54.4942 21.9634 54.4942C22.7368 54.4942 23.26 54.153 24.6021 52.8109L25.694 51.6963L26.149 52.0147C27.5821 52.9929 30.0616 54.0848 32.0179 54.5625L33.2462 54.8809L33.2917 56.7462C33.3372 58.7253 33.4055 58.9982 33.9741 59.5214C34.5201 60.0219 34.9068 60.1129 37.0451 60.1129C39.1833 60.1129 39.57 60.0446 40.116 59.5214C40.6619 58.9982 40.7302 58.7253 40.7984 56.7462L40.8439 54.8809L42.0723 54.5625C43.2097 54.2668 45.2569 53.5388 45.4617 53.3568C45.5072 53.3114 44.4835 52.2195 43.1869 50.9229L40.8212 48.5571L39.8885 48.7618C38.7056 49.0121 35.5892 49.0576 34.4291 48.8073C31.7676 48.2841 29.3336 47.033 27.3774 45.1677C25.2163 43.0977 23.8742 40.7092 23.2373 37.7293C22.9416 36.4327 22.9416 33.612 23.2373 32.3154C23.8742 29.3127 25.1936 26.9924 27.4228 24.8542C30.1526 22.3064 33.2917 21.0553 37.0906 21.0553C43.8466 21.0553 49.67 25.9915 50.8301 32.6793C51.0803 34.1807 51.0121 36.8876 50.6481 38.3207L50.3979 39.3671L52.6954 41.6646C54.7427 43.7119 55.0156 43.9621 55.1521 43.7801C55.4251 43.4162 56.1758 41.3234 56.4942 40.0723L56.8127 38.8212L58.7462 38.7757C60.748 38.7302 61.0665 38.6392 61.4987 38.1615C61.9991 37.5928 62.0446 37.3198 62.0446 35.0451C62.0446 32.5656 61.9991 32.3836 61.2257 31.7467L60.8163 31.4055L58.8145 31.36L56.8127 31.3145L56.4942 30.1543C55.9483 28.0843 55.0839 26.0143 54.0147 24.3992L53.628 23.785L54.8792 22.5112C56.1758 21.1918 56.4942 20.7368 56.4942 20.0089C56.4942 19.2583 56.1303 18.7578 54.6062 17.2565C53.4461 16.1191 53.0138 15.7779 52.6726 15.6641C51.6262 15.3684 51.2623 15.5504 49.6927 17.0972C48.942 17.8252 48.3051 18.4166 48.2596 18.4166C48.2141 18.4166 47.9639 18.2574 47.6909 18.0754C46.3488 17.1655 43.2551 15.8916 41.4808 15.5277L40.7757 15.3912V13.6624C40.7757 11.7743 40.6847 11.2966 40.2525 10.7734C39.6838 10.1137 39.2971 10 36.9996 10C35.2935 10 34.9295 10.0227 34.5656 10.2047Z" fill="white"/>
<path d="M35.9986 27.0379C34.9977 27.1972 34.4972 27.3564 34.4972 27.5611C34.4972 27.6521 35.3389 28.6075 36.3853 29.6312C37.5454 30.7685 38.3643 31.7012 38.4781 31.9514C38.7738 32.5656 38.751 33.5665 38.4553 34.1807C38.3416 34.4536 37.7501 35.0906 37.136 35.7048C36.2033 36.6147 35.9531 36.7966 35.4299 36.9331C34.7247 37.1378 34.156 37.0924 33.5191 36.7511C33.2916 36.6374 32.3135 35.7502 31.3353 34.7721C30.3572 33.794 29.4928 32.9978 29.379 32.9978C28.9696 32.9978 28.8104 35.4318 29.1288 36.9331C29.6065 39.2306 31.3581 41.4144 33.5418 42.4608C34.7247 43.0295 35.5664 43.2114 37.4772 43.2797C40.2979 43.4162 39.0013 42.3698 50.4205 53.7436C61.3394 64.6396 60.5205 63.9345 62.1583 63.9345C64.1601 63.9345 65.6387 62.4559 65.6387 60.4541C65.6387 58.7935 66.2301 59.476 55.5387 48.8301C46.6217 39.9585 46.0075 39.3216 45.6435 38.5937L45.2568 37.8203L45.1886 35.6593C45.1204 33.248 44.9839 32.6338 44.2332 31.178C43.7328 30.2226 42.4361 28.835 41.4807 28.2435C39.8657 27.1972 37.8411 26.765 35.9986 27.0379ZM62.9999 59.1347C63.6141 59.5214 63.8871 60.4768 63.5686 61.1138C63.4776 61.2958 63.2274 61.5915 63.0454 61.7507C62.727 62.0237 62.636 62.0464 62.0445 62.0009C61.4531 61.9554 61.3394 61.9099 61.0209 61.5687C60.384 60.8636 60.384 60.0901 61.0209 59.4305C61.5213 58.839 62.363 58.7253 62.9999 59.1347Z" fill="white"/>
</svg>
