<svg width="78" height="78" viewBox="0 0 78 78" fill="none" xmlns="http://www.w3.org/2000/svg">
<circle cx="39" cy="39" r="39" fill="#727272"/>
<path d="M65.0794 29.1558L65.0865 29.1359L65.0919 29.1155C65.1362 28.9481 65.3531 28.7717 65.5835 28.7717H69.9168C70.1365 28.7717 70.2773 28.8394 70.3589 28.9165C70.438 28.9912 70.5 29.1102 70.5 29.2943V55.8835C70.5 56.0677 70.438 56.1866 70.3589 56.2613C70.2772 56.3384 70.1364 56.4061 69.9167 56.4061H65.5834C65.4486 56.4061 65.3539 56.3753 65.281 56.3295C65.2064 56.2825 65.1261 56.2015 65.0503 56.0584C65.0502 56.0584 65.0502 56.0584 65.0502 56.0584L62.1253 50.5361L61.9844 50.2702H61.6834H58.6501H58.3491L58.2083 50.5361L55.2833 56.0584C55.2833 56.0584 55.2833 56.0584 55.2832 56.0584C55.2074 56.2015 55.1271 56.2825 55.0525 56.3295C54.9796 56.3753 54.8849 56.4061 54.7501 56.4061H24.4166C24.289 56.4061 24.0998 56.3166 23.928 56.1652L19.9512 50.4834L19.802 50.2702H19.5416H11.4166C11.1969 50.2702 11.0561 50.2025 10.9744 50.1254C10.8953 50.0507 10.8333 49.9317 10.8333 49.7475V41.5663V41.0663H10.3333H8.16659H7.66659V41.5663V44.6342C7.66659 44.8184 7.60455 44.9374 7.52547 45.0121C7.44378 45.0892 7.30303 45.1568 7.08329 45.1568C6.86356 45.1568 6.72281 45.0892 6.64112 45.0121C6.56203 44.9374 6.5 44.8184 6.5 44.6342V36.453C6.5 36.2688 6.56203 36.1499 6.64115 36.0752C6.72288 35.9981 6.86368 35.9304 7.08342 35.9304C7.30316 35.9304 7.4439 35.998 7.52559 36.0752C7.60468 36.1498 7.66671 36.2688 7.66671 36.453V39.5208V40.0208H8.16671H10.3334H10.8334V39.5208V33.3849C10.8334 33.2007 10.8955 33.0817 10.9745 33.0071C11.0562 32.93 11.197 32.8623 11.4167 32.8623H19H19.5V32.3623V29.2943C19.5 29.2032 19.5154 29.1499 19.5337 29.1111C19.5534 29.0692 19.5899 29.0161 19.6684 28.942C19.8021 28.8156 19.8991 28.7717 20.0833 28.7717H28.75H29.25V28.2717V24.1811V23.6811H28.75H25.5C25.2803 23.6811 25.1396 23.6135 25.0579 23.5363C24.9788 23.4617 24.9167 23.3427 24.9167 23.1585V17.0226C24.9167 16.8384 24.9788 16.7195 25.0579 16.6448C25.1396 16.5677 25.2803 16.5 25.5 16.5H45.0001C45.2198 16.5 45.3606 16.5677 45.4423 16.6448C45.5213 16.7195 45.5834 16.8384 45.5834 17.0226V23.1585C45.5834 23.3427 45.5213 23.4617 45.4423 23.5363C45.3606 23.6135 45.2198 23.6811 45.0001 23.6811H41.7501H41.2501V24.1811V28.2717V28.7717H41.7501H49.3336C49.5534 28.7717 49.6941 28.8394 49.7758 28.9165C49.8549 28.9912 49.9169 29.1101 49.9169 29.2943V32.3623V32.8623H50.4169H54.7502C54.9985 32.8623 55.1768 32.9686 55.3105 33.1532L58.2283 37.7438L58.3756 37.9756H58.6502H61.5752H61.9275L62.0461 37.6438L65.0794 29.1558ZM26.5833 17.5452H26.0833V18.0452V22.1358V22.6358H26.5833H29.8333H40.6667H43.9167H44.4167V22.1358V18.0452V17.5452H43.9167H26.5833ZM30.9168 23.6811H30.4168V24.1811V28.2717V28.7717H30.9168H39.5835H40.0835V28.2717V24.1811V23.6811H39.5835H30.9168ZM12 48.7248V49.2248H12.5H19H19.5V48.7248V34.4076V33.9076H19H12.5H12V34.4076V48.7248ZM53.9918 55.3607H54.2928L54.4337 55.0948L57.3587 49.5724L57.4168 49.4626V49.3384V38.8392V38.6937L57.3388 38.5709L54.5221 34.1394L54.3747 33.9076H54.1001H49.3334C49.1136 33.9076 48.9729 33.8399 48.8912 33.7628C48.8121 33.6882 48.7501 33.5692 48.7501 33.385V30.3171V29.8171H48.2501H40.6667H29.8333H21.1666H20.6666V30.3171V33.385V49.4434V49.601L20.757 49.7301L24.5487 55.1474L24.698 55.3607H24.9583H53.9918ZM58.5834 48.7248V49.2248H59.0834H61.2501H61.7501V48.7248V39.5209V39.0209H61.2501H59.0834H58.5834V39.5209V48.7248ZM68.8334 55.3607H69.3334V54.8607V30.3171V29.8171H68.8334H66.3417H65.9894L65.8709 30.1488L62.9459 38.3337L62.9167 38.4153V38.5019V49.7328V49.8611L62.9785 49.9735L65.7952 55.1014L65.9376 55.3607H66.2334H68.8334Z" fill="white" stroke="white"/>
</svg>
