<svg width="68" height="63" viewBox="0 0 68 63" fill="none" xmlns="http://www.w3.org/2000/svg">
<ellipse cx="33.8212" cy="31.4018" rx="33.8222" ry="31.2885" fill="#DC564E"/>
<path d="M48.7222 41.8988L37.375 31.4018L48.7222 20.9046L49.119 20.5376L48.7222 20.1705L45.584 17.2677L45.2444 16.9536L44.9049 17.2677L33.5008 27.8178L22.0965 17.2677L21.757 16.9536L21.4174 17.2677L18.2796 20.1706L17.8829 20.5376L18.2796 20.9046L29.6267 31.4018L18.2796 41.8988L17.8828 42.2659L18.2796 42.6329L21.4174 45.5357L21.757 45.8498L22.0965 45.5357L33.5008 34.9857L44.9049 45.5357L45.2444 45.8498L45.5839 45.5357L48.7222 42.6329L49.119 42.2659L48.7222 41.8988Z" fill="white" stroke="white"/>
</svg>
