<svg width="163" height="163" viewBox="0 0 163 163" fill="none" xmlns="http://www.w3.org/2000/svg">
<circle cx="81.5" cy="81.5" r="81.5" fill="#EDEDED"/>
<path d="M70.3383 81.4999L43.4539 108.384L42.0397 109.799L43.4539 111.213L51.015 118.774L52.4292 120.188L53.8434 118.774L80.7279 91.8894L107.612 118.774L109.026 120.188L110.44 118.774L118.002 111.213L119.417 109.799L118.002 108.384L91.1175 81.4999L118.002 54.6151L119.417 53.2008L118.002 51.7866L110.44 44.2254L109.026 42.8113L107.612 44.2255L80.7279 71.1102L53.8435 44.2254L52.4292 42.8112L51.015 44.2255L43.4539 51.7867L42.0398 53.2009L43.4539 54.6151L70.3383 81.4999Z" fill="white" stroke="white" stroke-width="4"/>
</svg>
