<svg width="62" height="62" viewBox="0 0 62 62" fill="none" xmlns="http://www.w3.org/2000/svg">
<path fill-rule="evenodd" clip-rule="evenodd" d="M33.01 3.94766C32.344 3.89922 31.678 3.875 31.012 3.875V0C31.7749 0 32.5377 0.0242187 33.3006 0.0847656L33.01 3.94766ZM40.7721 5.69141C39.5249 5.20703 38.2534 4.81953 36.9577 4.52891L37.8053 0.750781C39.2827 1.08984 40.7479 1.52578 42.1647 2.08281L40.7721 5.69141ZM46.076 8.44023C45.519 8.07695 44.9499 7.72578 44.3807 7.39883L46.294 4.02031C47.6139 4.77109 48.8854 5.61875 50.0842 6.55117L47.6987 9.60273C47.178 9.20312 46.6331 8.81562 46.076 8.44023ZM53.1842 15.3789C52.4213 14.2891 51.5737 13.2598 50.6534 12.291L53.4627 9.61484C54.5042 10.7168 55.4729 11.9035 56.3569 13.1387L53.1842 15.3789ZM56.0663 20.6102C55.812 19.9926 55.5334 19.3871 55.2307 18.7937L58.694 17.05C59.3721 18.4062 59.9655 19.823 60.4377 21.2641L56.7565 22.475C56.5506 21.8574 56.3206 21.2277 56.0663 20.6102ZM58.1249 30.334C58.0885 29.002 57.9674 27.6699 57.7374 26.3621L61.5518 25.7082C61.8061 27.2098 61.9635 28.7234 61.9999 30.2371L58.1249 30.334ZM57.6163 36.2918C57.7374 35.6258 57.8463 34.9719 57.9311 34.318L61.7819 34.7902C61.6002 36.3039 61.2975 37.7934 60.8858 39.2707L57.144 38.2414C57.3256 37.5875 57.4831 36.9457 57.6163 36.2918ZM53.9229 45.507C54.6374 44.3809 55.267 43.2063 55.812 41.9832L59.3479 43.5574C58.7303 44.95 58.0159 46.2941 57.1924 47.5777L53.9229 45.507ZM50.1932 50.1812C50.6655 49.709 51.1135 49.2246 51.5495 48.716L54.4799 51.2469C53.9834 51.8281 53.4627 52.3852 52.9299 52.918L50.1932 50.1812Z" fill="#8E8D8D"/>
<path fill-rule="evenodd" clip-rule="evenodd" d="M31.0121 3.875C16.0328 3.875 3.88706 16.0207 3.88706 31C3.88706 45.9793 16.0328 58.125 31.0121 58.1129C38.205 58.1129 45.0953 55.2551 50.1933 50.1691L52.93 52.9059C40.8328 65.0152 21.2035 65.0152 9.09409 52.918C-3.02739 40.8207 -3.02739 21.1914 9.08198 9.08203C14.8945 3.26953 22.7777 0 31.0121 0V3.875Z" fill="#8E8D8D"/>
<path fill-rule="evenodd" clip-rule="evenodd" d="M29.0746 11.625C30.1523 11.625 31.0121 12.4969 31.0121 13.5625V33.7488L43.5938 40.9418C44.5141 41.4988 44.8047 42.6855 44.2477 43.6059C43.7148 44.4898 42.5766 44.8047 41.6684 44.3082L28.1059 36.5582C27.5004 36.207 27.125 35.5773 27.125 34.875V13.5625C27.1371 12.4969 27.9969 11.625 29.0746 11.625Z" fill="#8E8D8D"/>
</svg>
