<svg width="126" height="124" viewBox="0 0 126 124" fill="none" xmlns="http://www.w3.org/2000/svg">
<path d="M58.1767 8.43249C59.7641 5.74098 60.5578 4.39523 61.5885 3.94088C62.4879 3.54444 63.5126 3.54444 64.4119 3.94088C65.4427 4.39523 66.2364 5.74098 67.8238 8.43248L112.579 84.3176C114.212 87.0849 115.028 88.4686 114.916 89.6057C114.818 90.5974 114.302 91.5003 113.498 92.0883C112.575 92.7625 110.969 92.7625 107.756 92.7625H18.2446C15.0318 92.7625 13.4254 92.7625 12.5029 92.0883C11.6984 91.5003 11.1826 90.5974 11.0849 89.6057C10.9729 88.4686 11.7889 87.0849 13.4211 84.3176L58.1767 8.43249Z" fill="#877B7B"/>
<rect x="59.0128" y="24.9238" width="9.56966" height="35.2414" fill="white"/>
<rect x="59.0128" y="67.2129" width="9.56966" height="10.5724" fill="white"/>
</svg>
