<svg width="42" height="44" viewBox="0 0 42 44" fill="none" xmlns="http://www.w3.org/2000/svg">
<path d="M4.13806 43.0566C3.38079 43.0566 2.62767 42.8413 1.96144 42.415C1.36215 42.0281 0.867542 41.4886 0.524344 40.8474C0.181145 40.2063 0.000682161 39.4847 0 38.7509V4.30497C0 2.81087 0.74485 1.42443 1.96144 0.640784C2.56206 0.256544 3.24672 0.0375584 3.95106 0.00441688C4.6554 -0.0287246 5.35627 0.125067 5.98777 0.451332L39.0922 17.6743C39.7796 18.0325 40.3575 18.5827 40.7615 19.2633C41.1654 19.9439 41.3793 20.728 41.3793 21.5279C41.3793 22.3278 41.1654 23.1119 40.7615 23.7925C40.3575 24.4731 39.7796 25.0233 39.0922 25.3815L5.98777 42.6045C5.40844 42.9059 4.76704 43.0566 4.13806 43.0566Z" fill="white"/>
</svg>
