<svg width="26" height="26" viewBox="0 0 26 26" fill="none" xmlns="http://www.w3.org/2000/svg">
<path d="M13 0C16.5907 0 19.8407 1.45573 22.1914 3.80859C24.5443 6.16146 26 9.41146 26 13C26 16.5907 24.5443 19.8407 22.1914 22.1914C19.8385 24.5443 16.5885 26 13 26C9.40934 26 6.15934 24.5443 3.80859 22.1914C1.45573 19.8407 0 16.5907 0 13C0 9.40934 1.45573 6.15934 3.80859 3.80859C6.15934 1.45573 9.40934 0 13 0ZM8.9502 8.3514H11.8257V17.6507H8.9502V8.3514ZM14.1743 8.3514H17.0498V17.6507H14.1743V8.3514ZM20.613 5.38704C18.6642 3.43831 15.9728 2.23438 13 2.23438C10.0272 2.23438 7.33366 3.44043 5.38704 5.38704C3.43831 7.33577 2.23438 10.0272 2.23438 13C2.23438 15.9728 3.44043 18.6663 5.38704 20.613C7.33577 22.5617 10.0272 23.7656 13 23.7656C15.9728 23.7656 18.6663 22.5596 20.613 20.613C22.5617 18.6642 23.7656 15.9728 23.7656 13C23.7656 10.0272 22.5617 7.33366 20.613 5.38704Z" fill="white"/>
</svg>
