<svg width="33" height="34" viewBox="0 0 33 34" fill="none" xmlns="http://www.w3.org/2000/svg">
<path d="M28.9324 0.535606C29.5165 0.535606 30.0974 0.701653 30.6112 1.03042C31.0734 1.32887 31.4549 1.74498 31.7196 2.23947C31.9843 2.73396 32.1235 3.2905 32.124 3.85652V30.4238C32.124 31.5762 31.5495 32.6455 30.6112 33.2499C30.148 33.5463 29.6199 33.7152 29.0767 33.7407C28.5334 33.7663 27.9929 33.6477 27.5058 33.396L1.97311 20.1124C1.44298 19.8361 0.9972 19.4117 0.685665 18.8868C0.37413 18.3619 0.209131 17.7571 0.209131 17.1402C0.209131 16.5232 0.37413 15.9185 0.685665 15.3935C0.9972 14.8686 1.44298 14.4443 1.97311 14.168L27.5058 0.884304C27.9526 0.65184 28.4473 0.535606 28.9324 0.535606Z" fill="white"/>
</svg>
