<svg width="43" height="43" viewBox="0 0 43 43" fill="none" xmlns="http://www.w3.org/2000/svg">
<path d="M17.4566 33.0231L17.4644 33.031L17.485 33.0722L17.5341 33.0231L36.2255 14.3272L36.2608 14.2919L36.2255 14.2565L31.9504 9.97687L31.9151 9.94148L31.8797 9.97685L17.4965 24.3601L11.1248 17.9884L11.0895 17.9531L11.0541 17.9884L6.77676 22.2635L6.7414 22.2989L6.77673 22.3342L17.4566 33.0231ZM0.05 21.5C0.05 9.65282 9.65282 0.05 21.5 0.05C33.3472 0.05 42.95 9.65282 42.95 21.5C42.95 33.3472 33.3472 42.95 21.5 42.95C9.65282 42.95 0.05 33.3472 0.05 21.5Z" fill="white" stroke="#DC564E" stroke-width="0.1"/>
</svg>
